<svg xmlns="http://www.w3.org/2000/svg" xmlns:xlink="http://www.w3.org/1999/xlink" width="500" zoomAndPan="magnify" viewBox="0 0 375 225" height="300" preserveAspectRatio="xMidYMid meet" version="1.0"><defs><g/><clipPath id="5cd59a085f"><path d="M 5.710938 54.207031 L 120.894531 54.207031 L 120.894531 170.457031 L 5.710938 170.457031 Z M 5.710938 54.207031 " clip-rule="nonzero"/></clipPath></defs><rect x="-37.5" width="450" fill="#ffffff" y="-22.5" height="270" fill-opacity="1"/><rect x="-37.5" width="450" fill="#000000" y="-22.5" height="270" fill-opacity="1"/><g clip-path="url(#5cd59a085f)"><path fill="#ffffff" d="M 33.089844 75.609375 L 30.714844 75.570312 L 25.96875 75.492188 L 21.222656 75.410156 L 18.847656 75.371094 L 17.671875 75.351562 L 17.050781 75.351562 C 16.753906 75.351562 16.453125 75.371094 16.171875 75.371094 C 14.996094 75.472656 13.820312 75.769531 12.703125 76.230469 C 11.605469 76.6875 10.589844 77.367188 9.710938 78.164062 C 8.832031 78.960938 8.074219 79.898438 7.476562 80.957031 C 6.878906 82.015625 6.480469 83.171875 6.238281 84.347656 C 6.199219 84.648438 6.140625 84.945312 6.121094 85.226562 C 6.101562 85.523438 6.078125 85.824219 6.078125 86.101562 L 6.058594 87.339844 L 6.039062 89.714844 L 6 94.460938 L 5.902344 103.9375 L 5.800781 122.90625 L 5.800781 141.898438 L 5.839844 151.375 L 5.859375 156.121094 L 5.859375 157.957031 C 5.878906 158.257812 5.878906 158.574219 5.902344 158.875 C 6.039062 160.070312 6.359375 161.25 6.878906 162.367188 C 7.875 164.582031 9.652344 166.375 11.765625 167.492188 C 12.824219 168.050781 14 168.429688 15.175781 168.589844 C 15.773438 168.691406 16.375 168.710938 16.972656 168.730469 L 18.148438 168.710938 L 27.664062 168.429688 L 32.410156 168.289062 L 34.785156 168.210938 C 35.203125 168.210938 35.523438 168.191406 35.863281 168.191406 C 36.203125 168.191406 36.542969 168.191406 36.859375 168.210938 C 38.214844 168.25 39.554688 168.449219 40.890625 168.808594 C 41.230469 168.890625 41.546875 168.988281 41.867188 169.089844 L 43.003906 169.425781 L 44.203125 169.785156 C 44.640625 169.90625 45.058594 170.027344 45.496094 170.125 C 47.234375 170.542969 49.027344 170.765625 50.824219 170.785156 C 51.042969 170.785156 51.261719 170.785156 51.480469 170.785156 L 52.121094 170.765625 L 53.296875 170.746094 L 55.671875 170.664062 L 65.148438 170.386719 L 74.621094 170.066406 L 76.996094 169.964844 L 78.171875 169.925781 L 78.792969 169.90625 L 79.449219 169.886719 C 81.226562 169.765625 82.960938 169.425781 84.617188 168.828125 C 86.292969 168.269531 87.828125 167.472656 89.285156 166.515625 C 89.5625 166.335938 90.042969 165.976562 90.5625 165.597656 C 91.757812 164.71875 93.195312 164.222656 94.671875 164.140625 C 97.042969 164.023438 99.457031 163.921875 101.851562 163.78125 L 111.328125 163.265625 C 114.5 163.0625 117.632812 162.90625 120.804688 162.644531 C 117.632812 162.425781 114.460938 162.246094 111.328125 162.027344 L 101.851562 161.527344 C 99.597656 161.410156 97.363281 161.308594 95.089844 161.210938 C 94.628906 161.1875 92.777344 161.167969 92.039062 161.328125 C 90.800781 161.628906 87.769531 163.242188 87.390625 163.441406 C 86.132812 164.121094 84.816406 164.679688 83.441406 165.019531 C 82.0625 165.359375 80.667969 165.539062 79.269531 165.539062 L 78.75 165.539062 L 78.152344 165.519531 L 76.976562 165.476562 L 74.601562 165.378906 L 65.128906 165.058594 L 55.652344 164.78125 L 53.277344 164.699219 L 52.101562 164.679688 L 51.5625 164.660156 C 51.382812 164.660156 51.222656 164.640625 51.042969 164.640625 C 49.667969 164.539062 48.3125 164.320312 47.015625 163.960938 C 46.695312 163.863281 46.355469 163.761719 46.035156 163.664062 L 44.980469 163.304688 L 43.882812 162.90625 C 43.464844 162.765625 43.023438 162.605469 42.605469 162.484375 C 40.890625 161.96875 39.09375 161.628906 37.300781 161.449219 C 36.859375 161.410156 36.382812 161.367188 35.941406 161.367188 C 35.503906 161.347656 35.003906 161.347656 34.644531 161.347656 L 32.292969 161.347656 L 27.542969 161.328125 L 18.070312 161.308594 L 16.890625 161.308594 C 16.691406 161.289062 16.53125 161.289062 16.332031 161.230469 C 15.972656 161.148438 15.59375 161.03125 15.257812 160.828125 C 14.617188 160.429688 14.058594 159.851562 13.78125 159.15625 C 13.640625 158.816406 13.5625 158.4375 13.5 158.078125 C 13.5 157.976562 13.5 157.878906 13.5 157.796875 L 13.5 156.160156 L 13.539062 151.414062 L 13.679688 141.9375 L 13.78125 122.949219 L 13.78125 103.957031 L 13.738281 94.480469 L 13.71875 89.734375 L 13.699219 87.359375 L 13.699219 86.203125 C 13.699219 86.101562 13.699219 86.003906 13.699219 85.902344 C 13.699219 85.804688 13.71875 85.703125 13.71875 85.625 C 13.898438 84.128906 15.234375 82.832031 16.792969 82.671875 C 16.890625 82.671875 16.992188 82.671875 17.089844 82.652344 C 17.113281 82.652344 17.171875 82.652344 17.210938 82.652344 L 17.648438 82.652344 L 18.828125 82.632812 L 21.199219 82.59375 L 25.949219 82.511719 L 30.695312 82.433594 L 33.070312 82.394531 L 34.246094 82.375 L 34.964844 82.351562 C 35.402344 82.332031 35.824219 82.273438 36.242188 82.152344 C 37.9375 81.734375 39.394531 80.558594 40.171875 79.042969 C 40.269531 78.84375 40.371094 78.644531 40.449219 78.441406 C 40.492188 78.324219 40.492188 78.324219 40.53125 78.242188 L 40.570312 78.105469 L 40.769531 77.546875 L 41.167969 76.449219 L 42.765625 71.980469 L 44.359375 67.511719 L 45.140625 65.277344 L 45.539062 64.140625 L 45.636719 63.859375 L 45.71875 63.660156 C 45.757812 63.542969 45.816406 63.382812 45.855469 63.300781 C 46.296875 62.304688 47.015625 61.40625 47.890625 60.75 C 48.808594 60.089844 49.828125 59.613281 50.984375 59.472656 C 51.125 59.453125 51.261719 59.453125 51.402344 59.433594 L 51.621094 59.414062 C 51.703125 59.414062 51.820312 59.414062 51.921875 59.414062 L 53.097656 59.371094 L 55.472656 59.292969 L 60.238281 59.191406 L 69.734375 58.8125 L 72.109375 58.714844 C 72.867188 58.695312 73.746094 58.632812 74.34375 58.632812 C 74.980469 58.65625 75.640625 58.753906 76.277344 58.933594 C 76.917969 59.132812 77.535156 59.371094 78.113281 59.671875 C 78.671875 59.992188 79.25 60.410156 79.730469 60.847656 C 80.226562 61.308594 80.667969 61.828125 81.027344 62.40625 C 81.386719 62.964844 81.683594 63.601562 81.945312 64.238281 L 82.742188 66.472656 L 85.914062 75.429688 C 86.992188 78.402344 88.046875 81.394531 89.183594 84.347656 C 88.527344 81.257812 87.789062 78.164062 87.070312 75.09375 L 84.855469 65.855469 L 84.316406 63.542969 C 84.097656 62.683594 83.777344 61.847656 83.359375 61.027344 C 82.941406 60.25 82.421875 59.472656 81.804688 58.792969 C 81.183594 58.136719 80.507812 57.515625 79.769531 56.980469 C 79.011719 56.460938 78.191406 56.042969 77.316406 55.703125 C 76.457031 55.382812 75.519531 55.183594 74.621094 55.0625 C 73.625 54.964844 72.925781 54.964844 72.109375 54.945312 L 69.734375 54.84375 L 60.257812 54.503906 L 55.511719 54.324219 L 53.136719 54.246094 L 51.960938 54.207031 L 51.304688 54.207031 C 51.0625 54.207031 50.785156 54.207031 50.542969 54.226562 C 48.53125 54.367188 46.535156 55.0625 44.820312 56.160156 C 43.125 57.296875 41.667969 58.855469 40.710938 60.710938 C 40.589844 60.929688 40.492188 61.167969 40.371094 61.425781 L 40.230469 61.765625 L 40.113281 62.046875 L 39.652344 63.144531 L 38.734375 65.335938 L 36.921875 69.726562 L 34.867188 74.433594 C 34.527344 75.171875 33.847656 75.652344 33.089844 75.609375 " fill-opacity="1" fill-rule="nonzero"/></g><path fill="#ffffff" d="M 89.703125 108.1875 C 88.386719 105.511719 86.589844 102.960938 84.296875 100.824219 L 83.441406 100.046875 C 83.140625 99.808594 82.839844 99.546875 82.523438 99.308594 C 81.921875 98.789062 81.265625 98.371094 80.625 97.914062 C 79.308594 97.054688 77.933594 96.277344 76.457031 95.617188 C 75.738281 95.28125 74.980469 95.019531 74.222656 94.742188 C 73.863281 94.601562 73.464844 94.5 73.066406 94.382812 C 72.667969 94.28125 72.308594 94.144531 71.910156 94.0625 C 71.132812 93.882812 70.332031 93.664062 69.535156 93.5625 C 69.136719 93.484375 68.71875 93.445312 68.339844 93.363281 L 67.140625 93.246094 C 65.527344 93.105469 63.871094 93.105469 62.253906 93.246094 C 60.617188 93.382812 58.984375 93.644531 57.367188 94.0625 C 55.769531 94.480469 54.195312 95.019531 52.660156 95.699219 C 51.144531 96.355469 49.667969 97.195312 48.269531 98.113281 C 45.4375 99.925781 42.984375 102.28125 40.910156 104.933594 C 39.851562 106.25 38.976562 107.707031 38.15625 109.183594 C 37.339844 110.679688 36.660156 112.234375 36.121094 113.851562 C 35.582031 115.449219 35.164062 117.125 34.886719 118.777344 C 34.605469 120.453125 34.464844 122.148438 34.464844 123.847656 C 34.488281 125.542969 34.605469 127.238281 34.886719 128.914062 C 35.164062 130.589844 35.5625 132.242188 36.121094 133.839844 C 36.660156 135.457031 37.359375 137.011719 38.15625 138.507812 C 38.976562 140.003906 39.871094 141.441406 40.910156 142.757812 C 45.039062 148.082031 50.921875 152.011719 57.367188 153.628906 C 58.964844 154.046875 60.617188 154.285156 62.253906 154.445312 C 63.890625 154.585938 65.546875 154.585938 67.160156 154.445312 L 68.359375 154.328125 C 68.757812 154.285156 69.175781 154.207031 69.554688 154.128906 C 70.375 154.027344 71.152344 153.828125 71.929688 153.628906 C 72.328125 153.546875 72.707031 153.410156 73.085938 153.289062 C 73.484375 153.167969 73.84375 153.070312 74.242188 152.929688 C 75 152.632812 75.757812 152.390625 76.476562 152.050781 C 77.953125 151.414062 79.332031 150.597656 80.648438 149.757812 C 81.285156 149.300781 81.945312 148.882812 82.542969 148.363281 C 82.839844 148.121094 83.160156 147.863281 83.460938 147.625 L 84.316406 146.847656 C 86.570312 144.730469 88.367188 142.179688 89.722656 139.484375 C 85.652344 143.914062 80.585938 147.027344 75.179688 148.363281 C 72.507812 149.082031 69.753906 149.300781 67.042969 149.179688 C 64.347656 149.058594 61.714844 148.5 59.222656 147.605469 C 56.75 146.667969 54.433594 145.410156 52.359375 143.8125 C 50.304688 142.21875 48.511719 140.324219 47.035156 138.226562 C 45.578125 136.113281 44.378906 133.800781 43.664062 131.367188 C 43.304688 130.167969 42.984375 128.914062 42.785156 127.65625 C 42.585938 126.398438 42.503906 125.121094 42.484375 123.847656 C 42.484375 122.570312 42.585938 121.292969 42.765625 120.035156 C 42.964844 118.777344 43.261719 117.523438 43.644531 116.324219 C 44.378906 113.871094 45.558594 111.578125 47.015625 109.464844 C 48.488281 107.347656 50.304688 105.453125 52.339844 103.859375 C 54.394531 102.261719 56.707031 100.984375 59.203125 100.066406 C 61.675781 99.148438 64.308594 98.609375 67.042969 98.492188 C 69.734375 98.371094 72.488281 98.589844 75.179688 99.308594 C 80.585938 100.625 85.613281 103.777344 89.703125 108.1875 " fill-opacity="1" fill-rule="nonzero"/><path fill="#ffffff" d="M 56.789062 113.8125 C 57.40625 113.09375 58.027344 112.414062 58.722656 111.796875 C 59.042969 111.476562 59.402344 111.179688 59.78125 110.878906 C 60.140625 110.601562 60.519531 110.320312 60.878906 110.0625 C 61.636719 109.542969 62.433594 109.125 63.230469 108.746094 C 64.050781 108.386719 64.867188 108.027344 65.746094 107.808594 C 67.441406 107.289062 69.214844 107.128906 70.933594 107.167969 C 72.667969 107.269531 74.363281 107.585938 75.957031 108.144531 C 77.554688 108.765625 79.03125 109.601562 80.386719 110.660156 L 80.886719 111.058594 C 81.066406 111.179688 81.226562 111.339844 81.34375 111.476562 C 81.644531 111.777344 81.945312 112.078125 82.261719 112.355469 L 83.082031 113.3125 L 83.28125 113.550781 L 83.460938 113.832031 L 83.820312 114.351562 C 84.757812 115.746094 85.515625 117.242188 85.972656 118.878906 C 86.433594 120.472656 86.691406 122.148438 86.710938 123.847656 C 86.691406 125.519531 86.433594 127.175781 85.972656 128.8125 C 85.515625 130.429688 84.714844 131.925781 83.820312 133.339844 L 83.460938 133.859375 L 83.28125 134.140625 L 83.082031 134.378906 L 82.261719 135.335938 C 81.964844 135.636719 81.644531 135.933594 81.34375 136.214844 C 81.207031 136.351562 81.027344 136.511719 80.886719 136.632812 L 80.386719 137.03125 C 79.070312 138.070312 77.554688 138.925781 75.957031 139.546875 C 74.363281 140.105469 72.648438 140.421875 70.933594 140.523438 C 69.195312 140.5625 67.441406 140.382812 65.746094 139.882812 C 64.886719 139.664062 64.070312 139.324219 63.230469 138.945312 C 62.414062 138.546875 61.636719 138.109375 60.878906 137.628906 C 60.480469 137.390625 60.140625 137.089844 59.78125 136.8125 C 59.441406 136.511719 59.0625 136.253906 58.722656 135.894531 C 58.003906 135.277344 57.425781 134.597656 56.789062 133.878906 C 57.644531 135.554688 58.804688 137.132812 60.21875 138.429688 L 60.757812 138.925781 C 60.9375 139.066406 61.117188 139.226562 61.316406 139.386719 C 61.675781 139.703125 62.09375 139.945312 62.492188 140.242188 C 63.332031 140.761719 64.191406 141.242188 65.105469 141.640625 C 66.921875 142.457031 68.898438 142.894531 70.910156 143.035156 C 72.925781 143.136719 74.960938 142.9375 76.9375 142.398438 C 78.910156 141.839844 80.765625 140.921875 82.441406 139.746094 L 83.0625 139.304688 C 83.261719 139.167969 83.480469 139.007812 83.679688 138.847656 L 84.835938 137.808594 C 85.175781 137.449219 85.515625 137.050781 85.894531 136.671875 L 86.171875 136.375 L 86.410156 136.074219 L 86.871094 135.457031 C 87.011719 135.257812 87.191406 135.035156 87.328125 134.835938 L 87.726562 134.179688 C 88.007812 133.738281 88.265625 133.300781 88.488281 132.824219 C 88.707031 132.363281 88.945312 131.886719 89.144531 131.425781 L 89.683594 129.96875 C 90.300781 127.996094 90.621094 125.941406 90.640625 123.886719 C 90.601562 121.832031 90.300781 119.757812 89.683594 117.800781 L 89.144531 116.34375 C 88.945312 115.886719 88.707031 115.40625 88.488281 114.949219 C 88.285156 114.488281 87.988281 114.03125 87.726562 113.59375 L 87.328125 112.933594 C 87.191406 112.714844 87.03125 112.515625 86.871094 112.316406 L 86.410156 111.695312 L 86.171875 111.398438 L 85.894531 111.097656 C 85.554688 110.738281 85.214844 110.339844 84.835938 109.960938 L 83.679688 108.925781 C 83.480469 108.746094 83.28125 108.605469 83.0625 108.464844 L 82.441406 108.027344 C 80.765625 106.851562 78.910156 105.933594 76.9375 105.375 C 74.960938 104.835938 72.925781 104.636719 70.910156 104.734375 C 68.898438 104.855469 66.941406 105.332031 65.105469 106.132812 C 64.191406 106.53125 63.332031 107.007812 62.492188 107.527344 C 61.675781 108.085938 60.898438 108.664062 60.199219 109.34375 C 58.804688 110.601562 57.644531 112.136719 56.789062 113.8125 " fill-opacity="1" fill-rule="nonzero"/><g fill="#ffffff" fill-opacity="1"><g transform="translate(107.811375, 121.144748)"><g><path d="M 2.785156 0 L 8.824219 0 C 8.421875 -3.003906 8.328125 -6.164062 8.328125 -9.136719 C 13.71875 -9.257812 19.910156 -9.042969 24.152344 -8.792969 C 24.03125 -10.0625 24.03125 -11.519531 24.152344 -12.695312 C 19.910156 -12.417969 13.75 -12.167969 8.328125 -12.261719 C 8.300781 -14.707031 8.300781 -17.15625 8.390625 -19.570312 C 13.902344 -19.632812 22.078125 -19.136719 26.414062 -18.332031 C 26.289062 -19.878906 26.289062 -21.460938 26.414062 -23.007812 C 20.746094 -22.542969 6.441406 -22.761719 2.785156 -23.070312 C 3.160156 -17.308594 3.160156 -5.789062 2.785156 0 Z M 2.785156 0 "/></g></g></g><g fill="#ffffff" fill-opacity="1"><g transform="translate(135.018679, 121.144748)"><g><path d="M 11.859375 0.433594 C 18.609375 0.433594 22.605469 -2.847656 22.605469 -8.390625 C 22.605469 -13.933594 18.609375 -17.1875 11.859375 -17.1875 C 5.078125 -17.1875 1.082031 -13.933594 1.082031 -8.390625 C 1.082031 -2.847656 5.078125 0.433594 11.859375 0.433594 Z M 11.859375 -2.664062 C 8.238281 -2.664062 6.164062 -4.738281 6.164062 -8.390625 C 6.164062 -11.765625 8.238281 -13.871094 11.859375 -13.871094 C 15.421875 -13.871094 17.527344 -11.765625 17.527344 -8.390625 C 17.527344 -4.738281 15.421875 -2.664062 11.859375 -2.664062 Z M 11.859375 -2.664062 "/></g></g></g><g fill="#ffffff" fill-opacity="1"><g transform="translate(158.697392, 121.144748)"><g><path d="M 9.011719 -13.6875 C 11.953125 -13.6875 14.894531 -13.5625 17.496094 -13.316406 C 17.371094 -14.617188 17.371094 -15.390625 17.496094 -16.660156 C 14.925781 -16.410156 11.984375 -16.289062 9.074219 -16.289062 C 9.105469 -18.425781 9.164062 -20.59375 9.226562 -22.636719 C 7.710938 -21.894531 5.976562 -21.613281 3.933594 -21.398438 C 4.085938 -20.066406 4.179688 -18.269531 4.273438 -16.382812 C 2.757812 -16.441406 1.269531 -16.535156 -0.125 -16.660156 C 0 -15.761719 0 -14.214844 -0.125 -13.316406 C 1.300781 -13.4375 2.785156 -13.53125 4.367188 -13.59375 C 4.460938 -10.15625 4.460938 -6.875 4.460938 -5.730469 C 4.460938 -1.023438 7.835938 0.339844 11.457031 0.371094 C 13.59375 0.371094 15.792969 -0.09375 17.433594 -0.589844 C 17.1875 -1.734375 17.25 -2.941406 17.496094 -4.085938 C 16.101562 -3.714844 14.367188 -3.21875 12.820312 -3.25 C 10.589844 -3.28125 8.792969 -4.304688 8.855469 -7.957031 C 8.886719 -9.660156 8.949219 -11.644531 9.011719 -13.6875 Z M 9.011719 -13.6875 "/></g></g></g><g fill="#ffffff" fill-opacity="1"><g transform="translate(176.866551, 121.144748)"><g><path d="M 11.859375 0.433594 C 18.609375 0.433594 22.605469 -2.847656 22.605469 -8.390625 C 22.605469 -13.933594 18.609375 -17.1875 11.859375 -17.1875 C 5.078125 -17.1875 1.082031 -13.933594 1.082031 -8.390625 C 1.082031 -2.847656 5.078125 0.433594 11.859375 0.433594 Z M 11.859375 -2.664062 C 8.238281 -2.664062 6.164062 -4.738281 6.164062 -8.390625 C 6.164062 -11.765625 8.238281 -13.871094 11.859375 -13.871094 C 15.421875 -13.871094 17.527344 -11.765625 17.527344 -8.390625 C 17.527344 -4.738281 15.421875 -2.664062 11.859375 -2.664062 Z M 11.859375 -2.664062 "/></g></g></g><g fill="#ffffff" fill-opacity="1"><g transform="translate(200.545264, 121.144748)"><g><path d="M 30.191406 0 C 26.445312 -7.679688 22.914062 -15.390625 19.664062 -23.070312 C 17.433594 -22.667969 13.128906 -22.792969 10.898438 -23.070312 C 7.648438 -15.390625 4.179688 -7.679688 0.433594 0 L 6.503906 0 C 7.121094 -1.488281 7.773438 -3.160156 8.484375 -4.863281 C 12.511719 -4.953125 18.023438 -4.953125 22.015625 -4.832031 C 22.667969 -3.191406 23.253906 -1.546875 23.84375 0 Z M 9.785156 -8.019531 C 11.828125 -12.976562 13.902344 -17.867188 15.171875 -20.222656 C 17.15625 -16.566406 19.042969 -12.292969 20.746094 -8.019531 C 17.433594 -7.925781 13.097656 -7.925781 9.785156 -8.019531 Z M 9.785156 -8.019531 "/></g></g></g><g fill="#ffffff" fill-opacity="1"><g transform="translate(231.15735, 121.144748)"><g><path d="M 7.710938 0 C 7.214844 -2.167969 7.214844 -4.117188 7.214844 -6.285156 C 7.214844 -10.15625 9.011719 -12.386719 12.542969 -12.386719 C 13.316406 -12.386719 14.304688 -12.230469 15.453125 -11.890625 C 15.050781 -13.71875 15.050781 -15.605469 15.453125 -16.90625 C 12.542969 -17.621094 8.855469 -15.792969 7.152344 -10.496094 L 6.75 -10.496094 C 6.84375 -12.820312 7.058594 -14.769531 7.523438 -17.1875 C 6.191406 -16.597656 3.933594 -16.226562 1.917969 -16.101562 C 2.632812 -10.683594 2.632812 -5.140625 1.917969 0 Z M 7.710938 0 "/></g></g></g><g fill="#ffffff" fill-opacity="1"><g transform="translate(247.097924, 121.144748)"><g><path d="M 9.011719 -13.6875 C 11.953125 -13.6875 14.894531 -13.5625 17.496094 -13.316406 C 17.371094 -14.617188 17.371094 -15.390625 17.496094 -16.660156 C 14.925781 -16.410156 11.984375 -16.289062 9.074219 -16.289062 C 9.105469 -18.425781 9.164062 -20.59375 9.226562 -22.636719 C 7.710938 -21.894531 5.976562 -21.613281 3.933594 -21.398438 C 4.085938 -20.066406 4.179688 -18.269531 4.273438 -16.382812 C 2.757812 -16.441406 1.269531 -16.535156 -0.125 -16.660156 C 0 -15.761719 0 -14.214844 -0.125 -13.316406 C 1.300781 -13.4375 2.785156 -13.53125 4.367188 -13.59375 C 4.460938 -10.15625 4.460938 -6.875 4.460938 -5.730469 C 4.460938 -1.023438 7.835938 0.339844 11.457031 0.371094 C 13.59375 0.371094 15.792969 -0.09375 17.433594 -0.589844 C 17.1875 -1.734375 17.25 -2.941406 17.496094 -4.085938 C 16.101562 -3.714844 14.367188 -3.21875 12.820312 -3.25 C 10.589844 -3.28125 8.792969 -4.304688 8.855469 -7.957031 C 8.886719 -9.660156 8.949219 -11.644531 9.011719 -13.6875 Z M 9.011719 -13.6875 "/></g></g></g><g fill="#ffffff" fill-opacity="1"><g transform="translate(265.267083, 121.144748)"><g><path d="M 4.367188 0.308594 C 6.316406 0.308594 7.308594 -0.371094 7.308594 -1.859375 C 7.308594 -3.3125 6.316406 -4.027344 4.367188 -4.027344 C 2.414062 -4.027344 1.425781 -3.3125 1.425781 -1.859375 C 1.425781 -0.371094 2.414062 0.308594 4.367188 0.308594 Z M 4.367188 0.308594 "/></g></g></g><g fill="#ffffff" fill-opacity="1"><g transform="translate(273.995703, 121.144748)"><g><path d="M 17.371094 0.527344 C 23.378906 0.527344 27.375 -0.804688 30.875 -3.34375 C 30.65625 -4.582031 30.347656 -6.316406 30.53125 -8.144531 C 26.660156 -4.488281 22.359375 -3.21875 17.960938 -3.21875 C 10.527344 -3.21875 6.8125 -6.625 6.8125 -11.644531 C 6.8125 -16.96875 11.210938 -19.972656 18.144531 -19.941406 C 21.242188 -19.910156 25.546875 -19.167969 30.53125 -16.164062 C 30.316406 -17.960938 30.316406 -19.292969 30.53125 -21.089844 C 25.578125 -23.132812 21.460938 -23.65625 17.867188 -23.65625 C 7.804688 -23.65625 1.425781 -19.476562 1.425781 -11.644531 C 1.425781 -4.148438 7.183594 0.527344 17.371094 0.527344 Z M 17.371094 0.527344 "/></g></g></g><g fill="#ffffff" fill-opacity="1"><g transform="translate(306.526847, 121.144748)"><g><path d="M 11.859375 0.433594 C 18.609375 0.433594 22.605469 -2.847656 22.605469 -8.390625 C 22.605469 -13.933594 18.609375 -17.1875 11.859375 -17.1875 C 5.078125 -17.1875 1.082031 -13.933594 1.082031 -8.390625 C 1.082031 -2.847656 5.078125 0.433594 11.859375 0.433594 Z M 11.859375 -2.664062 C 8.238281 -2.664062 6.164062 -4.738281 6.164062 -8.390625 C 6.164062 -11.765625 8.238281 -13.871094 11.859375 -13.871094 C 15.421875 -13.871094 17.527344 -11.765625 17.527344 -8.390625 C 17.527344 -4.738281 15.421875 -2.664062 11.859375 -2.664062 Z M 11.859375 -2.664062 "/></g></g></g><g fill="#ffffff" fill-opacity="1"><g transform="translate(330.205561, 121.144748)"><g><path d="M 1.917969 -0.0625 L 7.554688 0 C 7.308594 -2.261719 7.308594 -4.519531 7.308594 -6.78125 C 7.308594 -10.929688 8.792969 -13.316406 11.765625 -13.316406 C 14.460938 -13.316406 15.605469 -11.148438 15.605469 -7.308594 C 15.605469 -4.863281 15.605469 -2.476562 15.390625 -0.0625 L 20.871094 -0.0625 C 20.59375 -1.671875 20.5 -4.273438 20.5 -6.75 C 20.5 -11.085938 21.953125 -13.316406 24.804688 -13.316406 C 27.589844 -13.316406 28.796875 -11.242188 28.796875 -7.308594 C 28.796875 -4.894531 28.796875 -2.476562 28.550781 -0.0625 L 33.96875 -0.0625 C 33.289062 -3.3125 33.503906 -7.804688 33.445312 -10.09375 C 33.351562 -13.996094 31.492188 -17.21875 27.527344 -17.21875 C 23.78125 -17.21875 21.117188 -14.277344 20.3125 -11.179688 L 20.003906 -11.179688 C 19.816406 -14.398438 18.238281 -17.21875 14.335938 -17.21875 C 10.4375 -17.21875 8.144531 -14.335938 7.03125 -10.621094 L 6.6875 -10.621094 C 6.8125 -12.976562 7.03125 -14.863281 7.554688 -17.277344 C 6.285156 -16.691406 4.242188 -16.320312 1.917969 -16.195312 C 2.539062 -10.777344 2.539062 -5.046875 1.917969 -0.0625 Z M 1.917969 -0.0625 "/></g></g></g><g fill="#ffffff" fill-opacity="1"><g transform="translate(107.811375, 144.204815)"><g><path d="M 8.128906 -11.128906 C 5.890625 -11.128906 3.882812 -11.097656 1.597656 -11.113281 C 1.644531 -7.613281 1.644531 -3.089844 1.597656 0 L 2.558594 0 L 2.511719 -3.699219 L 8.175781 -3.699219 C 11.3125 -3.699219 12.894531 -5.160156 12.894531 -7.382812 C 12.894531 -9.804688 11.207031 -11.128906 8.128906 -11.128906 Z M 8.023438 -4.382812 C 6.152344 -4.382812 4.371094 -4.398438 2.511719 -4.398438 C 2.496094 -6.410156 2.496094 -8.402344 2.511719 -10.398438 L 8.007812 -10.398438 C 10.519531 -10.398438 11.964844 -9.332031 11.964844 -7.339844 C 11.964844 -5.40625 10.535156 -4.382812 8.023438 -4.382812 Z M 8.023438 -4.382812 "/></g></g></g><g fill="#ffffff" fill-opacity="1"><g transform="translate(131.934435, 144.204815)"><g><path d="M 1.492188 0 L 2.390625 0 L 2.390625 -3.242188 C 2.390625 -5.359375 3.761719 -7.550781 6.226562 -7.550781 C 8.480469 -7.550781 9.273438 -6.105469 9.273438 -4.292969 L 9.273438 0 L 10.183594 0 C 10.046875 -1.308594 10.109375 -3.273438 10.109375 -4.613281 C 10.109375 -6.5625 9.300781 -8.25 6.578125 -8.25 C 4.734375 -8.25 2.894531 -6.882812 2.390625 -4.871094 L 2.328125 -4.871094 C 2.34375 -5.96875 2.375 -10.871094 2.449219 -11.980469 C 2.191406 -11.921875 1.828125 -11.875 1.492188 -11.859375 C 1.582031 -7.171875 1.566406 -2.328125 1.492188 0 Z M 1.492188 0 "/></g></g></g><g fill="#ffffff" fill-opacity="1"><g transform="translate(153.927655, 144.204815)"><g><path d="M 5.832031 0.136719 C 8.921875 0.136719 10.75 -1.429688 10.75 -4.109375 C 10.75 -6.683594 8.921875 -8.238281 5.832031 -8.238281 C 2.726562 -8.238281 0.898438 -6.683594 0.898438 -4.109375 C 0.898438 -1.429688 2.726562 0.136719 5.832031 0.136719 Z M 5.816406 -0.472656 C 3.257812 -0.472656 1.796875 -1.796875 1.796875 -4.109375 C 1.796875 -6.273438 3.257812 -7.597656 5.816406 -7.597656 C 8.34375 -7.597656 9.851562 -6.273438 9.851562 -4.109375 C 9.851562 -1.796875 8.34375 -0.472656 5.816406 -0.472656 Z M 5.816406 -0.472656 "/></g></g></g><g fill="#ffffff" fill-opacity="1"><g transform="translate(176.073006, 144.204815)"><g><path d="M 3.195312 -7.503906 C 4.824219 -7.519531 6.484375 -7.503906 8.070312 -7.476562 C 8.054688 -7.6875 8.054688 -7.886719 8.070312 -8.097656 C 6.484375 -8.070312 4.839844 -8.054688 3.210938 -8.054688 C 3.210938 -9.027344 3.226562 -9.988281 3.226562 -10.945312 C 2.953125 -10.871094 2.632812 -10.839844 2.3125 -10.824219 L 2.359375 -8.070312 C 1.554688 -8.070312 0.761719 -8.085938 -0.015625 -8.097656 C 0 -7.917969 0 -7.65625 -0.015625 -7.476562 C 0.761719 -7.492188 1.554688 -7.503906 2.359375 -7.503906 L 2.359375 -2.832031 C 2.359375 -0.59375 3.761719 0.0898438 5.3125 0.136719 C 6.289062 0.167969 7.308594 -0.0742188 8.070312 -0.367188 C 8.039062 -0.59375 8.054688 -0.867188 8.070312 -1.125 C 7.261719 -0.730469 6.316406 -0.488281 5.464844 -0.53125 C 4.171875 -0.609375 3.152344 -1.292969 3.183594 -3.136719 C 3.183594 -4.566406 3.195312 -6.027344 3.195312 -7.503906 Z M 3.195312 -7.503906 "/></g></g></g><g fill="#ffffff" fill-opacity="1"><g transform="translate(195.084439, 144.204815)"><g><path d="M 5.832031 0.136719 C 8.921875 0.136719 10.75 -1.429688 10.75 -4.109375 C 10.75 -6.683594 8.921875 -8.238281 5.832031 -8.238281 C 2.726562 -8.238281 0.898438 -6.683594 0.898438 -4.109375 C 0.898438 -1.429688 2.726562 0.136719 5.832031 0.136719 Z M 5.816406 -0.472656 C 3.257812 -0.472656 1.796875 -1.796875 1.796875 -4.109375 C 1.796875 -6.273438 3.257812 -7.597656 5.816406 -7.597656 C 8.34375 -7.597656 9.851562 -6.273438 9.851562 -4.109375 C 9.851562 -1.796875 8.34375 -0.472656 5.816406 -0.472656 Z M 5.816406 -0.472656 "/></g></g></g><g fill="#ffffff" fill-opacity="1"><g transform="translate(217.229785, 144.204815)"><g><path d="M 9.300781 -8.039062 C 9.347656 -7.003906 9.347656 -5.96875 9.363281 -5.070312 L 9.300781 -5.070312 C 8.738281 -6.789062 7.429688 -8.25 5.070312 -8.25 C 2.589844 -8.25 0.898438 -6.578125 0.898438 -4.1875 C 0.898438 -1.628906 2.527344 0.121094 5.542969 0.121094 C 7.277344 0.121094 8.691406 -0.683594 9.332031 -1.949219 L 9.332031 -1.019531 C 9.332031 1.828125 7.367188 2.648438 5.664062 2.648438 C 4.09375 2.648438 2.375 2.191406 1.402344 1.523438 C 1.429688 1.765625 1.429688 2.101562 1.402344 2.328125 C 2.589844 2.984375 4.050781 3.304688 5.695312 3.304688 C 9.410156 3.304688 10.140625 0.792969 10.140625 -1.140625 C 10.140625 -3.320312 10.140625 -5.816406 10.183594 -8.160156 C 9.925781 -8.097656 9.621094 -8.054688 9.300781 -8.039062 Z M 5.738281 -0.472656 C 3.609375 -0.472656 1.8125 -1.628906 1.8125 -4.125 C 1.8125 -6.164062 3.183594 -7.597656 5.34375 -7.597656 C 8.96875 -7.597656 9.332031 -4.292969 9.332031 -3.015625 L 9.332031 -2.464844 C 8.511719 -0.882812 7.078125 -0.472656 5.738281 -0.472656 Z M 5.738281 -0.472656 "/></g></g></g><g fill="#ffffff" fill-opacity="1"><g transform="translate(239.359906, 144.204815)"><g><path d="M 2.449219 0 C 2.390625 -1.050781 2.390625 -2.070312 2.390625 -3.121094 C 2.390625 -6.363281 4.445312 -7.339844 6.195312 -7.339844 C 6.425781 -7.339844 6.683594 -7.308594 6.941406 -7.261719 C 6.910156 -7.566406 6.910156 -7.886719 6.941406 -8.144531 C 5.191406 -8.238281 3.074219 -7.550781 2.390625 -4.839844 L 2.3125 -4.839844 C 2.328125 -5.9375 2.359375 -7.050781 2.421875 -8.144531 C 2.175781 -8.085938 1.828125 -8.054688 1.492188 -8.039062 C 1.582031 -5.375 1.582031 -2.863281 1.492188 0 Z M 2.449219 0 "/></g></g></g><g fill="#ffffff" fill-opacity="1"><g transform="translate(257.093424, 144.204815)"><g><path d="M 10.503906 0 C 9.941406 -1.691406 9.957031 -2.863281 9.925781 -4.644531 C 9.894531 -7.261719 8.632812 -8.25 5.664062 -8.25 C 3.804688 -8.25 2.328125 -7.765625 1.277344 -7.171875 C 1.308594 -6.941406 1.308594 -6.578125 1.277344 -6.332031 C 2.132812 -7.035156 3.667969 -7.597656 5.496094 -7.597656 C 8.601562 -7.597656 9.058594 -6.347656 9.121094 -4.339844 L 5.496094 -4.339844 C 2.617188 -4.339844 1.113281 -3.578125 1.113281 -1.996094 C 1.113281 -0.792969 1.996094 0.199219 4.171875 0.199219 C 6.714844 0.199219 8.28125 -0.914062 9.164062 -2.101562 C 9.226562 -1.429688 9.347656 -0.714844 9.621094 0 Z M 4.582031 -0.457031 C 3.058594 -0.457031 2.039062 -0.972656 2.039062 -2.132812 C 2.039062 -3.625 3.804688 -3.929688 6.363281 -3.929688 L 9.121094 -3.929688 L 9.121094 -3.851562 C 9.121094 -3.441406 9.105469 -2.9375 9.132812 -2.390625 C 8.238281 -1.355469 6.757812 -0.457031 4.582031 -0.457031 Z M 4.582031 -0.457031 "/></g></g></g><g fill="#ffffff" fill-opacity="1"><g transform="translate(279.132286, 144.204815)"><g><path d="M 6.546875 -8.238281 C 4.1875 -8.238281 2.878906 -6.789062 2.3125 -5.070312 L 2.253906 -5.070312 C 2.269531 -6 2.285156 -7.050781 2.34375 -8.160156 C 2.101562 -8.097656 1.75 -8.054688 1.414062 -8.054688 C 1.507812 -3.972656 1.492188 1.566406 1.414062 3.042969 C 1.71875 3.015625 1.996094 3.015625 2.34375 3.042969 C 2.300781 1.402344 2.285156 -0.304688 2.285156 -1.964844 C 2.953125 -0.667969 4.476562 0.199219 6.074219 0.199219 C 9.089844 0.199219 10.71875 -1.628906 10.71875 -4.1875 C 10.71875 -6.578125 9.027344 -8.238281 6.546875 -8.238281 Z M 5.875 -0.378906 C 4.566406 -0.378906 3.183594 -0.882812 2.285156 -2.34375 L 2.285156 -3 C 2.285156 -4.292969 2.648438 -7.613281 6.273438 -7.613281 C 8.449219 -7.613281 9.820312 -6.179688 9.820312 -4.140625 C 9.820312 -1.613281 8.023438 -0.378906 5.875 -0.378906 Z M 5.875 -0.378906 "/></g></g></g><g fill="#ffffff" fill-opacity="1"><g transform="translate(301.247211, 144.204815)"><g><path d="M 1.492188 0 L 2.390625 0 L 2.390625 -3.242188 C 2.390625 -5.359375 3.761719 -7.550781 6.226562 -7.550781 C 8.480469 -7.550781 9.273438 -6.105469 9.273438 -4.292969 L 9.273438 0 L 10.183594 0 C 10.046875 -1.308594 10.109375 -3.273438 10.109375 -4.613281 C 10.109375 -6.5625 9.300781 -8.25 6.578125 -8.25 C 4.734375 -8.25 2.894531 -6.882812 2.390625 -4.871094 L 2.328125 -4.871094 C 2.34375 -5.96875 2.375 -10.871094 2.449219 -11.980469 C 2.191406 -11.921875 1.828125 -11.875 1.492188 -11.859375 C 1.582031 -7.171875 1.566406 -2.328125 1.492188 0 Z M 1.492188 0 "/></g></g></g><g fill="#ffffff" fill-opacity="1"><g transform="translate(323.240439, 144.204815)"><g><path d="M 9.257812 -0.867188 C 9.257812 1.886719 7.71875 2.648438 5.296875 2.648438 C 3.777344 2.648438 2.070312 2.175781 1.203125 1.476562 C 1.234375 1.75 1.234375 2.085938 1.203125 2.328125 C 2.449219 2.984375 3.941406 3.304688 5.40625 3.304688 C 9.957031 3.304688 9.988281 0.242188 9.988281 -0.988281 L 9.988281 -8.113281 C 9.699219 -8.054688 9.394531 -8.039062 9.105469 -8.039062 L 9.105469 -4.78125 C 9.105469 -1.539062 7.277344 -0.578125 5.144531 -0.578125 C 2.300781 -0.578125 2.191406 -2.710938 2.191406 -3.730469 L 2.191406 -8.113281 C 1.902344 -8.054688 1.597656 -8.039062 1.308594 -8.039062 C 1.371094 -6.5625 1.355469 -5.007812 1.355469 -3.488281 C 1.355469 -1.21875 2.359375 0.0898438 4.6875 0.0898438 C 7.199219 0.0898438 8.664062 -0.898438 9.164062 -3.304688 L 9.257812 -3.304688 Z M 9.257812 -0.867188 "/></g></g></g><path fill="#ffffff" d="M 139.929688 97.75 C 145.769531 94.734375 152.578125 94.039062 159.054688 93.878906 C 166.023438 93.699219 172.976562 94.15625 179.90625 94.792969 C 186.917969 95.449219 193.90625 96.261719 200.9375 96.757812 C 204.433594 96.996094 207.949219 97.136719 211.464844 97.15625 C 214.761719 97.175781 218.097656 97.195312 221.394531 96.796875 C 224.710938 96.402344 228.027344 95.46875 230.566406 93.183594 C 232.792969 91.175781 234.402344 88.121094 233.785156 85.082031 C 233.527344 83.808594 231.542969 84.109375 231.542969 85.378906 C 231.5625 88.078125 230.507812 90.363281 228.421875 92.070312 C 226.078125 93.996094 222.941406 94.671875 220.023438 95.03125 C 213.390625 95.804688 206.636719 95.546875 199.984375 95.089844 C 186.480469 94.136719 173.015625 91.933594 159.449219 92.410156 C 152.539062 92.628906 145.550781 93.421875 139.53125 97.074219 C 139.09375 97.335938 139.472656 97.988281 139.929688 97.75 Z M 139.929688 97.75 " fill-opacity="1" fill-rule="nonzero"/><path fill="#ffffff" d="M 142.550781 93.34375 C 148.46875 91.175781 154.585938 90.660156 160.839844 90.621094 C 161.179688 90.621094 161.296875 90.046875 160.921875 90.007812 C 154.664062 89.074219 148.152344 90.5625 142.410156 93.085938 C 142.292969 93.144531 142.390625 93.402344 142.550781 93.34375 Z M 142.550781 93.34375 " fill-opacity="1" fill-rule="nonzero"/><path fill="#ffffff" d="M 228.246094 96.816406 C 230.527344 96.5 232.632812 95.40625 234.222656 93.757812 C 235.035156 92.925781 235.730469 91.972656 236.207031 90.917969 C 236.605469 90.085938 237.339844 88.597656 236.746094 87.742188 C 236.464844 87.34375 235.988281 87.285156 235.632812 87.601562 C 234.957031 88.179688 235.054688 89.488281 234.777344 90.324219 C 234.460938 91.277344 234.003906 92.171875 233.429688 92.984375 C 232.136719 94.753906 230.289062 96.042969 228.183594 96.617188 C 228.046875 96.640625 228.105469 96.835938 228.246094 96.816406 Z M 228.246094 96.816406 " fill-opacity="1" fill-rule="nonzero"/></svg>